<mxfile host="65bd71144e">
    <diagram id="TsHCjm7W-puMc6sQwqfO" name="PÃ¡gina-1">
        <mxGraphModel dx="1358" dy="493" grid="1" gridSize="10" guides="1" tooltips="1" connect="1" arrows="1" fold="1" page="1" pageScale="1" pageWidth="827" pageHeight="1169" math="1" shadow="0">
            <root>
                <mxCell id="0"/>
                <mxCell id="1" parent="0"/>
                <mxCell id="4" value="" style="edgeStyle=none;html=1;fontFamily=Comic Sans MS;fontSize=27;" parent="1" source="2" target="3" edge="1">
                    <mxGeometry relative="1" as="geometry"/>
                </mxCell>
                <mxCell id="2" value="&lt;font color=&quot;#000000&quot;&gt;Inicio&lt;/font&gt;" style="ellipse;whiteSpace=wrap;html=1;fillColor=#dae8fc;strokeColor=#6c8ebf;fontFamily=Comic Sans MS;fontSize=27;gradientColor=#7ea6e0;" parent="1" vertex="1">
                    <mxGeometry x="354" y="30" width="120" height="80" as="geometry"/>
                </mxCell>
                <mxCell id="6" value="" style="edgeStyle=none;html=1;fontFamily=Comic Sans MS;fontSize=27;" parent="1" source="3" target="5" edge="1">
                    <mxGeometry relative="1" as="geometry"/>
                </mxCell>
                <mxCell id="3" value="&lt;font color=&quot;#000000&quot;&gt;A,B,C&lt;/font&gt;" style="shape=parallelogram;perimeter=parallelogramPerimeter;whiteSpace=wrap;html=1;fixedSize=1;fontSize=27;fontFamily=Comic Sans MS;fillColor=#d5e8d4;strokeColor=#82b366;gradientColor=#97d077;" parent="1" vertex="1">
                    <mxGeometry x="354" y="200" width="120" height="60" as="geometry"/>
                </mxCell>
                <mxCell id="8" value="" style="edgeStyle=none;html=1;fontFamily=Comic Sans MS;fontSize=27;" parent="1" source="5" target="7" edge="1">
                    <mxGeometry relative="1" as="geometry"/>
                </mxCell>
                <mxCell id="5" value="&lt;font color=&quot;#000000&quot;&gt;D=B^2-(4*A*C)&lt;/font&gt;" style="whiteSpace=wrap;html=1;fontSize=27;fontFamily=Comic Sans MS;fillColor=#fff2cc;strokeColor=#d6b656;gradientColor=#ffd966;" parent="1" vertex="1">
                    <mxGeometry x="302" y="340" width="224" height="80" as="geometry"/>
                </mxCell>
                <mxCell id="10" value="" style="edgeStyle=none;html=1;fontFamily=Comic Sans MS;fontSize=27;" parent="1" source="7" target="9" edge="1">
                    <mxGeometry relative="1" as="geometry">
                        <Array as="points">
                            <mxPoint x="586" y="555"/>
                        </Array>
                    </mxGeometry>
                </mxCell>
                <mxCell id="12" value="" style="edgeStyle=none;html=1;fontFamily=Comic Sans MS;fontSize=27;" parent="1" source="7" target="11" edge="1">
                    <mxGeometry relative="1" as="geometry">
                        <Array as="points">
                            <mxPoint x="246" y="555"/>
                        </Array>
                    </mxGeometry>
                </mxCell>
                <mxCell id="7" value="D&amp;lt;=0" style="rhombus;whiteSpace=wrap;html=1;fontSize=27;fontFamily=Comic Sans MS;fillColor=#e6d0de;strokeColor=#996185;gradientColor=#d5739d;" parent="1" vertex="1">
                    <mxGeometry x="362" y="500" width="104" height="110" as="geometry"/>
                </mxCell>
                <mxCell id="9" value="&lt;font color=&quot;#000000&quot;&gt;No hay soluciones son raices imaginarias&lt;/font&gt;" style="shape=document;whiteSpace=wrap;html=1;boundedLbl=1;fontSize=18;fontFamily=Comic Sans MS;fillColor=#ffcd28;strokeColor=#d79b00;gradientColor=#66FF66;" parent="1" vertex="1">
                    <mxGeometry x="510" y="610" width="156" height="120" as="geometry"/>
                </mxCell>
                <mxCell id="14" value="" style="edgeStyle=none;html=1;fontFamily=Comic Sans MS;fontSize=18;" parent="1" source="11" target="13" edge="1">
                    <mxGeometry relative="1" as="geometry">
                        <Array as="points">
                            <mxPoint x="390" y="670"/>
                        </Array>
                    </mxGeometry>
                </mxCell>
                <mxCell id="16" value="" style="edgeStyle=none;html=1;fontFamily=Comic Sans MS;fontSize=18;" parent="1" source="11" target="15" edge="1">
                    <mxGeometry relative="1" as="geometry">
                        <Array as="points">
                            <mxPoint x="55" y="670"/>
                        </Array>
                    </mxGeometry>
                </mxCell>
                <mxCell id="11" value="D==0" style="rhombus;whiteSpace=wrap;html=1;fontSize=27;fontFamily=Comic Sans MS;fillColor=#80FF00;strokeColor=#B09500;fontColor=#000000;gradientColor=#ffffff;" parent="1" vertex="1">
                    <mxGeometry x="180" y="610" width="132" height="120" as="geometry"/>
                </mxCell>
                <mxCell id="22" value="" style="edgeStyle=none;html=1;fontFamily=Comic Sans MS;fontSize=18;" parent="1" source="13" target="21" edge="1">
                    <mxGeometry relative="1" as="geometry"/>
                </mxCell>
                <mxCell id="13" value="&lt;font color=&quot;#000000&quot;&gt;X=-b/(2+A)&lt;/font&gt;" style="whiteSpace=wrap;html=1;fontSize=27;fontFamily=Comic Sans MS;fillColor=#33FFFF;strokeColor=#3700CC;fontColor=#ffffff;gradientColor=#ffffff;" parent="1" vertex="1">
                    <mxGeometry x="312" y="730" width="160" height="60" as="geometry"/>
                </mxCell>
                <mxCell id="20" value="" style="edgeStyle=none;html=1;fontFamily=Comic Sans MS;fontSize=18;" parent="1" source="15" target="19" edge="1">
                    <mxGeometry relative="1" as="geometry"/>
                </mxCell>
                <mxCell id="15" value="&lt;font color=&quot;#000000&quot;&gt;X&lt;sup&gt;1&lt;/sup&gt;=-B+sqrt(D)/2*A&lt;br&gt;X&lt;span style=&quot;font-size: 22.5px&quot;&gt;&lt;sup&gt;2&lt;/sup&gt;&lt;/span&gt;=-B-sqrt(D)/2*A&lt;/font&gt;" style="whiteSpace=wrap;html=1;fontSize=27;fontFamily=Comic Sans MS;fillColor=#CC99FF;strokeColor=#3700CC;fontColor=#ffffff;gradientColor=#ffffff;" parent="1" vertex="1">
                    <mxGeometry x="-70" y="730" width="250" height="100" as="geometry"/>
                </mxCell>
                <mxCell id="19" value="&lt;font color=&quot;#000000&quot;&gt;Tiene dos soluciones X&lt;sup&gt;1&lt;/sup&gt;&amp;nbsp;y X&lt;sup&gt;2&lt;/sup&gt;&amp;nbsp;&lt;/font&gt;" style="shape=document;whiteSpace=wrap;html=1;boundedLbl=1;fontSize=27;fontFamily=Comic Sans MS;fillColor=#33FFFF;strokeColor=#2D7600;fontColor=#ffffff;gradientColor=#ffffff;" parent="1" vertex="1">
                    <mxGeometry x="-27.5" y="920" width="165" height="140" as="geometry"/>
                </mxCell>
                <mxCell id="21" value="&lt;font color=&quot;#000000&quot;&gt;Tiene una unica solucion&lt;/font&gt;" style="shape=document;whiteSpace=wrap;html=1;boundedLbl=1;fontSize=27;fontFamily=Comic Sans MS;fillColor=#CCCC00;strokeColor=#2D7600;fontColor=#ffffff;gradientColor=#ffffff;" parent="1" vertex="1">
                    <mxGeometry x="302" y="860" width="182" height="130" as="geometry"/>
                </mxCell>
                <mxCell id="23" value="&lt;font color=&quot;#000000&quot;&gt;Fin&lt;/font&gt;" style="ellipse;whiteSpace=wrap;html=1;fontFamily=Comic Sans MS;fontSize=33;fillColor=#e51400;fontColor=#ffffff;strokeColor=#B20000;gradientColor=#ffffff;" parent="1" vertex="1">
                    <mxGeometry x="528" y="1200" width="120" height="80" as="geometry"/>
                </mxCell>
                <mxCell id="26" value="" style="endArrow=none;html=1;fontColor=#000000;" edge="1" parent="1">
                    <mxGeometry width="50" height="50" relative="1" as="geometry">
                        <mxPoint x="450" y="700" as="sourcePoint"/>
                        <mxPoint x="500" y="650" as="targetPoint"/>
                    </mxGeometry>
                </mxCell>
                <mxCell id="27" value="" style="endArrow=none;html=1;fontColor=#000000;" edge="1" parent="1" source="19">
                    <mxGeometry width="50" height="50" relative="1" as="geometry">
                        <mxPoint x="170" y="960" as="sourcePoint"/>
                        <mxPoint x="590" y="1140" as="targetPoint"/>
                        <Array as="points">
                            <mxPoint x="55" y="1140"/>
                        </Array>
                    </mxGeometry>
                </mxCell>
                <mxCell id="28" value="" style="endArrow=none;html=1;fontColor=#000000;entryX=0.61;entryY=0.754;entryDx=0;entryDy=0;entryPerimeter=0;" edge="1" parent="1" target="21">
                    <mxGeometry width="50" height="50" relative="1" as="geometry">
                        <mxPoint x="413" y="1140" as="sourcePoint"/>
                        <mxPoint x="530" y="950" as="targetPoint"/>
                    </mxGeometry>
                </mxCell>
                <mxCell id="30" value="" style="endArrow=classic;html=1;fontColor=#000000;" edge="1" parent="1" source="9">
                    <mxGeometry width="50" height="50" relative="1" as="geometry">
                        <mxPoint x="520" y="1070" as="sourcePoint"/>
                        <mxPoint x="590" y="1202" as="targetPoint"/>
                    </mxGeometry>
                </mxCell>
            </root>
        </mxGraphModel>
    </diagram>
</mxfile>